<svg xmlns="http://www.w3.org/2000/svg" width="300" height="180" viewBox="0 0 300 180">
  <path fill="#EBC50C" fill-rule="nonzero" d="M270 166C270.552285 166 271 165.552285 271 165 271 164.447715 270.552285 164 270 164 269.447715 164 269 164.447715 269 165 269 165.552285 269.447715 166 270 166zM270 167C268.895431 167 268 166.104569 268 165 268 163.895431 268.895431 163 270 163 271.104569 163 272 163.895431 272 165 272 166.104569 271.104569 167 270 167zM164 17C164.552285 17 165 16.5522847 165 16 165 15.4477153 164.552285 15 164 15 163.447715 15 163 15.4477153 163 16 163 16.5522847 163.447715 17 164 17zM164 18C162.895431 18 162 17.1045695 162 16 162 14.8954305 162.895431 14 164 14 165.104569 14 166 14.8954305 166 16 166 17.1045695 165.104569 18 164 18zM285 72C285.552285 72 286 71.5522847 286 71 286 70.4477153 285.552285 70 285 70 284.447715 70 284 70.4477153 284 71 284 71.5522847 284.447715 72 285 72zM285 73C283.895431 73 283 72.1045695 283 71 283 69.8954305 283.895431 69 285 69 286.104569 69 287 69.8954305 287 71 287 72.1045695 286.104569 73 285 73z"/>
  <polygon fill="#EBC50C" points="281 155 281 153 282 153 282 155 284 155 284 156 282 156 282 158 281 158 281 156 279 156 279 155"/>
  <polygon fill="#EBC50C" points="175 27 175 25 176 25 176 27 178 27 178 28 176 28 176 30 175 30 175 28 173 28 173 27"/>
  <path fill="#EBC50C" fill-rule="nonzero" d="M20,35 C20.5522847,35 21,34.5522847 21,34 C21,33.4477153 20.5522847,33 20,33 C19.4477153,33 19,33.4477153 19,34 C19,34.5522847 19.4477153,35 20,35 Z M20,36 C18.8954305,36 18,35.1045695 18,34 C18,32.8954305 18.8954305,32 20,32 C21.1045695,32 22,32.8954305 22,34 C22,35.1045695 21.1045695,36 20,36 Z"/>
  <path fill="#EBC50C" fill-rule="nonzero" d="M34.8062676 19.1937324C35.0645775 19.4520422 35.0645775 19.8708451 34.8062676 20.1291549L33.4031338 21.5322887C33.144824 21.7905985 32.7260211 21.7905985 32.4677113 21.5322887 32.2094015 21.2739789 32.2094015 20.855176 32.4677113 20.5968662L33.8708451 19.1937324C34.1291549 18.9354225 34.5479578 18.9354225 34.8062676 19.1937324L34.8062676 19.1937324zM31.5322887 22.4677113C31.7905985 22.7260211 31.7905985 23.144824 31.5322887 23.4031338L30.1291549 24.8062676C29.8708451 25.0645775 29.4520422 25.0645775 29.1937324 24.8062676 28.9354225 24.5479578 28.9354225 24.1291549 29.1937324 23.8708451L30.5968662 22.4677113C30.855176 22.2094015 31.2739789 22.2094015 31.5322887 22.4677113zM34.8062676 24.8062676C34.5479578 25.0645775 34.1291549 25.0645775 33.8708451 24.8062676L32.4677113 23.4031338C32.2094015 23.144824 32.2094015 22.7260211 32.4677113 22.4677113 32.7260211 22.2094015 33.144824 22.2094015 33.4031338 22.4677113L34.8062676 23.8708451C35.0645775 24.1291549 35.0645775 24.5479578 34.8062676 24.8062676zM31.5322887 21.5322887C31.2739789 21.7905985 30.855176 21.7905985 30.5968662 21.5322887L29.1937324 20.1291549C28.9354225 19.8708451 28.9354225 19.4520422 29.1937324 19.1937324 29.4520422 18.9354225 29.8708451 18.9354225 30.1291549 19.1937324L31.5322887 20.5968662C31.7905985 20.855176 31.7905985 21.2739789 31.5322887 21.5322887zM15.8062676 127.193732C16.0645775 127.452042 16.0645775 127.870845 15.8062676 128.129155L14.4031338 129.532289C14.144824 129.790599 13.7260211 129.790599 13.4677113 129.532289 13.2094015 129.273979 13.2094015 128.855176 13.4677113 128.596866L14.8708451 127.193732C15.1291549 126.935423 15.5479578 126.935423 15.8062676 127.193732L15.8062676 127.193732zM12.5322887 130.467711C12.7905985 130.726021 12.7905985 131.144824 12.5322887 131.403134L11.1291549 132.806268C10.8708451 133.064577 10.4520422 133.064577 10.1937324 132.806268 9.93542255 132.547958 9.93542255 132.129155 10.1937324 131.870845L11.5968662 130.467711C11.855176 130.209401 12.2739789 130.209401 12.5322887 130.467711zM15.8062676 132.806268C15.5479578 133.064577 15.1291549 133.064577 14.8708451 132.806268L13.4677113 131.403134C13.2094015 131.144824 13.2094015 130.726021 13.4677113 130.467711 13.7260211 130.209401 14.144824 130.209401 14.4031338 130.467711L15.8062676 131.870845C16.0645775 132.129155 16.0645775 132.547958 15.8062676 132.806268zM12.5322887 129.532289C12.2739789 129.790599 11.855176 129.790599 11.5968662 129.532289L10.1937324 128.129155C9.93542255 127.870845 9.93542255 127.452042 10.1937324 127.193732 10.4520422 126.935423 10.8708451 126.935423 11.1291549 127.193732L12.5322887 128.596866C12.7905985 128.855176 12.7905985 129.273979 12.5322887 129.532289z"/>
  <polygon fill="#9E9E9E" fill-rule="nonzero" points="160.507 89.167 151.75 81.2 153.046 80 164 90 153.046 100 151.75 98.8 160.507 90.833 136 90.833 136 89.167"/>
  <path fill="#F5F5F5" stroke="#BDBDBD" d="M269.500083,60.2071068 L245.792976,36.5 L185,36.5 C184.171573,36.5 183.5,37.1715729 183.5,38 L183.5,145.000073 C183.5,145.828501 184.171573,146.500073 185,146.500073 L268.000083,146.500073 C268.82851,146.500073 269.500083,145.828501 269.500083,145.000073 L269.500083,60.2071068 Z"/>
  <path fill="#BDBDBD" d="M246.000083,36 L270.000083,60 L247.000083,60 C246.447798,60 246.000083,59.5522847 246.000083,59 L246.000083,36 Z"/>
  <rect width="51" height="2" x="201" y="87" fill="#9E9E9E"/>
  <rect width="51" height="4" x="201" y="75" fill="#EBC50C"/>
  <rect width="51" height="2" x="201" y="97" fill="#9E9E9E"/>
  <rect width="21" height="2" x="231" y="107" fill="#9E9E9E"/>
  <rect width="21" height="2" x="231" y="117" fill="#9E9E9E"/>
  <rect width="21" height="2" x="231" y="127" fill="#9E9E9E"/>
  <path fill="#EBC50C" d="M176,106 L222,106 C222.552285,106 223,106.447715 223,107 L223,129 C223,129.552285 222.552285,130 222,130 L176,130 C175.447715,130 175,129.552285 175,129 L175,107 C175,106.447715 175.447715,106 176,106 Z"/>
  <path fill="#FFFFFF" fill-rule="nonzero" d="M183,124 L183,111 L187.114856,111 C190.011236,111 192.168539,111.993884 192.168539,115.015291 C192.168539,117.897554 190.011236,119.229358 187.194757,119.229358 L185.317104,119.229358 L185.317104,124 L183,124 Z M185.317104,117.380734 L187.014981,117.380734 C188.952559,117.380734 189.891386,116.605505 189.891386,115.015291 C189.891386,113.385321 188.872659,112.848624 186.935081,112.848624 L185.317104,112.848624 L185.317104,117.380734 Z M194.625468,124 L194.625468,111 L198.121099,111 C202.116105,111 204.473159,113.146789 204.473159,117.440367 C204.473159,121.753823 202.116105,124 198.240949,124 L194.625468,124 Z M196.942572,122.131498 L197.961298,122.131498 C200.598002,122.131498 202.09613,120.640673 202.09613,117.440367 C202.09613,114.259939 200.598002,112.868502 197.961298,112.868502 L196.942572,112.868502 L196.942572,122.131498 Z M207.109863,124 L207.109863,111 L215,111 L215,112.948012 L209.426966,112.948012 L209.426966,116.625382 L214.181024,116.625382 L214.181024,118.573394 L209.426966,118.573394 L209.426966,124 L207.109863,124 Z"/>
  <path fill="#EBC50C" fill-rule="nonzero" d="M18,155 C18.5522847,155 19,154.552285 19,154 C19,153.447715 18.5522847,153 18,153 C17.4477153,153 17,153.447715 17,154 C17,154.552285 17.4477153,155 18,155 Z M18,156 C16.8954305,156 16,155.104569 16,154 C16,152.895431 16.8954305,152 18,152 C19.1045695,152 20,152.895431 20,154 C20,155.104569 19.1045695,156 18,156 Z"/>
  <path fill="#EBC50C" d="M32,36 L93.0000829,36 L117.000083,60 L117.000083,145.000073 C117.000083,146.104643 116.104652,147.000073 115.000083,147.000073 L32,147.000073 C30.8954305,147.000073 30,146.104643 30,145.000073 L30,38 C30,36.8954305 30.8954305,36 32,36 Z"/>
  <path fill="#FFFFFF" d="M93.0000829,36 L117.000083,60 L94.0000829,60 C93.4477981,60 93.0000829,59.5522847 93.0000829,59 L93.0000829,36 Z" opacity=".3"/>
  <circle cx="93" cy="87" r="6" fill="#FFFFFF" fill-rule="nonzero"/>
  <polygon fill="#FFFFFF" fill-rule="nonzero" points="40 133 40 118.361 57.324 101 72.37 115.966 83.512 108.084 107 124.249 107 133"/>
</svg>
