<svg xmlns="http://www.w3.org/2000/svg" viewBox="0 0 20 20" width="20" height="20">
	<defs>
		<style>
			.cls-1 {
				fill: #313131;
			}

			.cls-2 {
				fill: #3192f2;
			}
		</style>
	</defs>
	<g>
		<path class="cls-1" d="M14.83,0a2,2,0,0,1,2,2v8.65H17a2,2,0,0,1,1.77,2v2.78h.07A1.22,1.22,0,0,1,20,16.61V18a2,2,0,0,1-1.92,2H2A2,2,0,0,1,0,18l0-4.08a1.2,1.2,0,0,1,.77-1.15V10.29A1.79,1.79,0,0,1,2.3,8.53V2A2,2,0,0,1,4.21,0ZM1.11,13.47a.39.39,0,0,0-.38.41L.77,18a1.21,1.21,0,0,0,1.15,1.22H18.05A1.17,1.17,0,0,0,19.2,18V16.65a.41.41,0,0,0-.39-.41l-5.13.09L13.6,16a3.54,3.54,0,0,0-3.18-2.45ZM14.83.82H4.25A1.24,1.24,0,0,0,3,2V12.69l7.35.13a4.28,4.28,0,0,1,3.8,2.69l1.84,0V2A1.22,1.22,0,0,0,14.83.82Zm2,10.61v4l1.15,0V12.65a1.17,1.17,0,0,0-1.15-1.22ZM2.26,9.35a1,1,0,0,0-.77.89v2.37h.77Z" />
		<path class="cls-2" d="M12.61,8.57A.37.37,0,0,1,13,9a.38.38,0,0,1-.38.41H5.71A.38.38,0,0,1,5.33,9a.37.37,0,0,1,.38-.41Zm1.53-3.26a.37.37,0,0,1,.38.4.37.37,0,0,1-.38.41H5.71a.37.37,0,0,1-.38-.41.37.37,0,0,1,.38-.4Z" />
	</g>
</svg>